<?xml version="1.0" standalone="no"?>
<!DOCTYPE svg PUBLIC "-//W3C//DTD SVG 20010904//EN"
 "http://www.w3.org/TR/2001/REC-SVG-20010904/DTD/svg10.dtd">
<svg version="1.0" xmlns="http://www.w3.org/2000/svg"
 width="512.000000pt" height="512.000000pt" viewBox="0 0 512.000000 512.000000"
 preserveAspectRatio="xMidYMid meet">

<g transform="translate(0.000000,512.000000) scale(0.100000,-0.100000)"
fill="#000000" stroke="none">
<path d="M2335 5110 c-217 -22 -468 -78 -651 -145 -123 -45 -374 -167 -474
-231 -321 -204 -619 -502 -824 -824 -63 -98 -185 -349 -231 -474 -78 -212
-129 -458 -147 -714 -24 -335 30 -720 147 -1038 45 -123 167 -374 231 -474
209 -329 518 -635 840 -833 757 -464 1710 -499 2499 -93 255 131 431 261 646
475 443 444 692 991 741 1631 9 124 9 179 0 242 -38 263 -261 458 -525 458
-222 0 -427 -143 -499 -348 -11 -31 -26 -113 -33 -182 -19 -173 -53 -262 -139
-357 -202 -224 -558 -233 -772 -19 -94 94 -154 230 -154 347 0 111 92 335 210
510 137 204 305 517 358 671 81 228 85 461 12 678 -119 357 -422 626 -794 706
-86 19 -318 26 -441 14z m399 -668 c132 -62 224 -183 248 -326 30 -179 -70
-365 -241 -449 -62 -30 -71 -32 -181 -32 -110 0 -118 1 -183 33 -125 62 -213
178 -239 320 -31 167 64 357 221 441 79 42 121 51 223 47 71 -3 98 -9 152 -34z
m-1070 -425 c118 -55 199 -146 236 -266 101 -324 -207 -632 -531 -531 -120 37
-211 117 -266 236 -26 54 -28 69 -28 174 0 105 2 120 28 171 51 105 145 191
250 230 80 30 231 23 311 -14z m-501 -1042 c132 -34 231 -114 289 -232 32 -65
33 -72 33 -183 0 -111 -1 -118 -33 -183 -84 -169 -270 -269 -448 -239 -144 24
-263 115 -327 249 -30 63 -32 76 -32 173 0 97 2 110 32 173 90 190 294 292
486 242z m441 -1070 c231 -60 368 -307 296 -536 -37 -120 -118 -212 -236 -266
-78 -36 -214 -44 -295 -18 -113 36 -212 124 -266 233 -26 52 -28 66 -28 172 0
105 2 120 28 174 92 196 296 294 501 241z m1139 -453 c169 -84 269 -270 239
-448 -24 -144 -115 -263 -249 -327 -63 -30 -76 -32 -173 -32 -97 0 -110 2
-173 32 -134 64 -225 183 -249 327 -33 199 97 408 295 472 27 9 78 13 143 11
90 -2 107 -6 167 -35z"/>
</g>
</svg>
