<?xml version="1.0" standalone="no"?>
<!DOCTYPE svg PUBLIC "-//W3C//DTD SVG 20010904//EN"
 "http://www.w3.org/TR/2001/REC-SVG-20010904/DTD/svg10.dtd">
<svg version="1.0" xmlns="http://www.w3.org/2000/svg"
 width="438.000000pt" height="380.000000pt" viewBox="0 0 438.000000 380.000000"
 preserveAspectRatio="xMidYMid meet">

<g transform="translate(0.000000,380.000000) scale(0.100000,-0.100000)"
fill="#000000" stroke="none">
<path d="M190 3671 c-69 -21 -130 -73 -166 -141 -18 -33 -19 -74 -19 -845 0
-903 -5 -835 69 -913 63 -68 92 -76 286 -82 l175 -5 3 -262 2 -261 31 -26 c36
-31 83 -34 119 -9 14 10 170 140 349 290 l324 273 203 0 203 0 3 -432 3 -433
29 -53 c32 -57 79 -98 135 -118 27 -10 156 -13 538 -14 l502 0 288 -243 c420
-354 397 -337 443 -337 27 0 48 8 67 24 l28 24 3 266 3 266 167 0 c154 0 171
2 217 24 59 27 106 77 129 137 15 40 16 120 14 850 l-3 806 -34 50 c-18 27
-48 60 -67 72 -74 51 -71 51 -896 51 l-768 0 0 423 c-1 317 -4 431 -14 458
-20 56 -61 103 -118 135 l-53 29 -1085 2 c-597 1 -1096 -2 -1110 -6z m2162
-208 c17 -15 18 -53 18 -779 0 -680 -2 -764 -16 -778 -14 -14 -76 -16 -532
-16 -489 0 -519 -1 -547 -19 -16 -10 -142 -114 -280 -230 -137 -116 -253 -211
-257 -211 -4 0 -8 88 -8 196 0 115 -4 203 -10 215 -24 43 -57 49 -276 49 -179
0 -210 2 -226 17 -17 15 -18 53 -18 776 0 694 1 762 17 779 15 17 62 18 1066
18 963 0 1052 -1 1069 -17z m1774 -1054 c18 -20 19 -49 21 -768 2 -588 0 -751
-10 -771 l-13 -25 -219 -5 c-309 -7 -295 6 -295 -268 0 -119 -4 -192 -10 -190
-5 1 -124 100 -265 218 -140 118 -270 220 -288 227 -23 9 -172 12 -536 12
-455 1 -506 3 -523 18 -17 15 -18 42 -18 425 l0 408 194 0 c210 0 247 7 312
56 19 15 47 48 62 73 l27 46 3 283 3 282 768 0 768 0 19 -21z"/>
<path d="M1131 3254 c-317 -85 -484 -423 -377 -760 30 -92 70 -156 144 -226
158 -151 415 -190 619 -94 l71 34 27 -28 c39 -41 96 -64 139 -56 40 8 96 56
96 83 0 10 -27 45 -59 77 l-59 58 38 72 c51 94 70 173 70 287 0 117 -20 202
-68 293 -67 129 -186 222 -332 261 -70 19 -238 18 -309 -1z m302 -209 c70 -33
138 -107 169 -183 30 -77 33 -252 4 -325 l-18 -49 -92 90 c-103 101 -130 113
-181 82 -36 -22 -45 -38 -45 -79 0 -35 18 -61 107 -152 l75 -76 -34 -14 c-21
-9 -69 -14 -133 -14 -90 0 -105 3 -152 28 -72 37 -120 88 -157 166 -29 62 -31
73 -31 181 0 103 3 121 26 171 47 100 125 169 219 196 68 20 176 10 243 -22z"/>
<path d="M2983 2189 c-18 -5 -40 -20 -48 -33 -26 -39 -395 -1000 -393 -1020 4
-29 50 -58 100 -63 72 -8 102 26 163 186 l50 131 199 -2 199 -3 49 -125 c56
-142 84 -179 145 -187 44 -6 116 24 127 52 3 10 -77 228 -192 522 -156 401
-203 510 -223 525 -31 23 -128 32 -176 17z m135 -424 c33 -88 64 -168 67 -177
7 -17 -3 -18 -129 -18 -75 0 -136 4 -136 9 0 4 24 73 54 152 77 203 76 202 80
198 2 -2 31 -76 64 -164z"/>
</g>
</svg>
