<?xml version="1.0" standalone="no"?>
<!DOCTYPE svg PUBLIC "-//W3C//DTD SVG 20010904//EN"
 "http://www.w3.org/TR/2001/REC-SVG-20010904/DTD/svg10.dtd">
<svg version="1.0" xmlns="http://www.w3.org/2000/svg"
 width="225.000000pt" height="225.000000pt" viewBox="0 0 225.000000 225.000000"
 preserveAspectRatio="xMidYMid meet">

<g transform="translate(0.000000,225.000000) scale(0.100000,-0.100000)"
fill="#000000" stroke="none">
<path d="M892 1743 c-18 -8 -69 -56 -113 -104 -66 -72 -87 -89 -109 -89 -25 0
-29 4 -32 33 l-3 32 -72 3 -73 3 0 -34 c0 -34 0 -34 -55 -40 -69 -7 -112 -31
-137 -77 -17 -33 -18 -60 -16 -457 3 -408 4 -422 24 -449 11 -15 33 -37 48
-48 27 -21 38 -21 764 -24 837 -3 787 -7 830 78 22 44 22 49 22 455 0 452 0
453 -63 499 -25 19 -45 21 -185 24 l-157 3 -91 94 c-49 52 -103 99 -118 105
-16 6 -112 10 -229 10 -165 0 -208 -3 -235 -17z m477 -91 c20 -20 62 -68 94
-105 l58 -67 163 0 c150 0 165 -2 190 -21 l26 -20 0 -415 0 -415 -25 -24 -24
-25 -721 0 -722 0 -29 29 -29 29 0 405 c0 383 1 406 19 428 19 23 24 24 194
27 l175 3 67 79 c117 139 94 130 327 130 l200 0 37 -38z"/>
<path d="M1068 1468 c-61 -8 -157 -49 -184 -80 -16 -17 -16 -19 1 -38 23 -26
25 -26 82 10 125 77 286 52 387 -61 39 -43 72 -105 78 -149 3 -24 0 -25 -59
-30 l-62 -5 81 -107 80 -108 79 108 78 107 -59 3 c-56 3 -60 5 -66 30 -49 228
-214 348 -436 320z"/>
<path d="M696 1158 l-77 -103 60 -3 c57 -3 61 -5 67 -30 3 -15 15 -52 27 -82
26 -67 120 -166 189 -198 55 -25 149 -42 204 -36 60 7 148 42 185 74 l34 29
-23 23 c-22 22 -23 22 -50 5 -101 -66 -213 -81 -304 -40 -88 40 -179 146 -189
223 -4 24 -1 25 58 30 l63 5 -66 85 c-107 139 -89 138 -178 18z"/>
</g>
</svg>
