<?xml version="1.0" standalone="no"?>
<!DOCTYPE svg PUBLIC "-//W3C//DTD SVG 20010904//EN"
 "http://www.w3.org/TR/2001/REC-SVG-20010904/DTD/svg10.dtd">
<svg version="1.0" xmlns="http://www.w3.org/2000/svg"
 width="256.000000pt" height="256.000000pt" viewBox="0 0 256.000000 256.000000"
 preserveAspectRatio="xMidYMid meet">

<g transform="translate(0.000000,256.000000) scale(0.100000,-0.100000)"
fill="#000000" stroke="none">
<path d="M1115 2440 c-581 -92 -1005 -580 -1005 -1160 0 -495 319 -943 785
-1103 55 -19 132 -40 170 -48 91 -18 339 -18 430 0 236 47 440 156 610 326
170 170 279 374 326 610 18 88 18 349 1 430 -102 479 -447 829 -915 931 -86
19 -318 27 -402 14z m400 -189 c368 -90 656 -383 741 -756 27 -118 25 -330 -4
-449 -24 -96 -90 -245 -143 -323 -145 -212 -363 -362 -614 -419 -119 -28 -330
-25 -450 5 -123 31 -291 115 -392 195 -158 126 -293 338 -344 541 -30 120 -33
331 -5 450 93 407 419 709 834 775 86 14 285 4 377 -19z"/>
<path d="M1158 2200 c-78 -12 -176 -39 -210 -56 l-28 -15 0 -274 c0 -151 4
-275 9 -275 9 0 820 467 835 481 15 13 -169 96 -264 119 -99 23 -261 33 -342
20z"/>
<path d="M769 2052 c-151 -102 -284 -268 -350 -436 -29 -76 -62 -207 -53 -215
3 -3 111 -67 242 -142 l237 -137 3 244 c1 134 1 355 0 490 l-3 246 -76 -50z"/>
<path d="M1598 1877 c-126 -73 -227 -136 -227 -142 1 -5 186 -117 413 -248
l411 -237 3 67 c6 129 -45 305 -129 445 -47 79 -202 248 -228 248 -9 0 -118
-60 -243 -133z"/>
<path d="M1710 955 c0 -267 3 -485 8 -485 12 0 113 70 170 118 141 119 255
314 296 509 10 46 11 65 2 71 -16 13 -465 272 -471 272 -3 0 -5 -218 -5 -485z"/>
<path d="M360 1245 c0 -230 135 -513 314 -660 l46 -37 153 88 c83 48 191 110
239 138 49 28 88 53 88 56 0 3 -116 71 -258 153 -141 81 -330 190 -419 241
l-163 95 0 -74z"/>
<path d="M1208 747 c-229 -133 -414 -246 -411 -251 11 -16 173 -87 250 -108
64 -18 106 -22 233 -22 154 -1 218 10 333 53 l27 11 0 280 c0 154 -3 280 -7
279 -5 0 -195 -109 -425 -242z"/>
</g>
</svg>
